<mxfile host="b7c3da94-4168-44fd-8a83-f96c62a5bd13" modified="2020-09-12T04:29:41.785Z" agent="5.0 (Macintosh; Intel Mac OS X 10_15_6) AppleWebKit/537.36 (KHTML, like Gecko) Code/1.48.2 Chrome/78.0.3904.130 Electron/7.3.2 Safari/537.36" etag="4gPyMLVq1gzWP-aVW6UN" version="13.1.3">
    <diagram id="6hGFLwfOUW9BJ-s0fimq" name="Page-1">
        <mxGraphModel dx="743" dy="680" grid="1" gridSize="10" guides="1" tooltips="1" connect="1" arrows="1" fold="1" page="1" pageScale="1" pageWidth="827" pageHeight="1169" math="0" shadow="0">
            <root>
                <mxCell id="0"/>
                <mxCell id="1" parent="0"/>
                <mxCell id="7" value="users" style="swimlane;fontStyle=0;childLayout=stackLayout;horizontal=1;startSize=26;horizontalStack=0;resizeParent=1;resizeParentMax=0;resizeLast=0;collapsible=1;marginBottom=0;align=center;fontSize=14;" parent="1" vertex="1">
                    <mxGeometry x="254" y="110" width="160" height="104" as="geometry"/>
                </mxCell>
                <mxCell id="8" value="name" style="text;strokeColor=none;fillColor=none;spacingLeft=4;spacingRight=4;overflow=hidden;rotatable=0;points=[[0,0.5],[1,0.5]];portConstraint=eastwest;fontSize=12;" parent="7" vertex="1">
                    <mxGeometry y="26" width="160" height="26" as="geometry"/>
                </mxCell>
                <mxCell id="9" value="mail" style="text;strokeColor=none;fillColor=none;spacingLeft=4;spacingRight=4;overflow=hidden;rotatable=0;points=[[0,0.5],[1,0.5]];portConstraint=eastwest;fontSize=12;" parent="7" vertex="1">
                    <mxGeometry y="52" width="160" height="26" as="geometry"/>
                </mxCell>
                <mxCell id="10" value="password" style="text;strokeColor=none;fillColor=none;spacingLeft=4;spacingRight=4;overflow=hidden;rotatable=0;points=[[0,0.5],[1,0.5]];portConstraint=eastwest;fontSize=12;" parent="7" vertex="1">
                    <mxGeometry y="78" width="160" height="26" as="geometry"/>
                </mxCell>
                <mxCell id="11" value="tweets" style="swimlane;fontStyle=0;childLayout=stackLayout;horizontal=1;startSize=30;horizontalStack=0;resizeParent=1;resizeParentMax=0;resizeLast=0;collapsible=1;marginBottom=0;align=center;fontSize=14;" parent="1" vertex="1">
                    <mxGeometry x="70" y="310" width="160" height="108" as="geometry"/>
                </mxCell>
                <mxCell id="12" value="text" style="text;strokeColor=none;fillColor=none;spacingLeft=4;spacingRight=4;overflow=hidden;rotatable=0;points=[[0,0.5],[1,0.5]];portConstraint=eastwest;fontSize=12;" parent="11" vertex="1">
                    <mxGeometry y="30" width="160" height="26" as="geometry"/>
                </mxCell>
                <mxCell id="13" value="image" style="text;strokeColor=none;fillColor=none;spacingLeft=4;spacingRight=4;overflow=hidden;rotatable=0;points=[[0,0.5],[1,0.5]];portConstraint=eastwest;fontSize=12;" parent="11" vertex="1">
                    <mxGeometry y="56" width="160" height="26" as="geometry"/>
                </mxCell>
                <mxCell id="14" value="Row 3" style="text;strokeColor=none;fillColor=none;spacingLeft=4;spacingRight=4;overflow=hidden;rotatable=0;points=[[0,0.5],[1,0.5]];portConstraint=eastwest;fontSize=12;" parent="11" vertex="1">
                    <mxGeometry y="82" width="160" height="26" as="geometry"/>
                </mxCell>
                <mxCell id="15" value="comments" style="swimlane;fontStyle=0;childLayout=stackLayout;horizontal=1;startSize=26;horizontalStack=0;resizeParent=1;resizeParentMax=0;resizeLast=0;collapsible=1;marginBottom=0;align=center;fontSize=14;" parent="1" vertex="1">
                    <mxGeometry x="460" y="310" width="160" height="100" as="geometry"/>
                </mxCell>
                <mxCell id="16" value="text" style="text;strokeColor=none;fillColor=none;spacingLeft=4;spacingRight=4;overflow=hidden;rotatable=0;points=[[0,0.5],[1,0.5]];portConstraint=eastwest;fontSize=12;" parent="15" vertex="1">
                    <mxGeometry y="26" width="160" height="74" as="geometry"/>
                </mxCell>
                <mxCell id="19" value="" style="fontSize=12;html=1;endArrow=ERoneToMany;edgeStyle=orthogonalEdgeStyle;exitX=0;exitY=0.5;exitDx=0;exitDy=0;entryX=0.25;entryY=0;entryDx=0;entryDy=0;spacingTop=3;" edge="1" parent="1" source="9" target="11">
                    <mxGeometry width="100" height="100" relative="1" as="geometry">
                        <mxPoint x="220" y="170" as="sourcePoint"/>
                        <mxPoint x="113" y="270" as="targetPoint"/>
                    </mxGeometry>
                </mxCell>
                <mxCell id="20" value="" style="edgeStyle=elbowEdgeStyle;fontSize=12;html=1;endArrow=ERoneToMany;elbow=vertical;entryX=0.5;entryY=0;entryDx=0;entryDy=0;exitX=1.019;exitY=-0.038;exitDx=0;exitDy=0;exitPerimeter=0;" edge="1" parent="1" source="9" target="15">
                    <mxGeometry width="100" height="100" relative="1" as="geometry">
                        <mxPoint x="430" y="160" as="sourcePoint"/>
                        <mxPoint x="470" y="230" as="targetPoint"/>
                        <Array as="points">
                            <mxPoint x="530" y="160"/>
                        </Array>
                    </mxGeometry>
                </mxCell>
                <mxCell id="23" value="" style="edgeStyle=entityRelationEdgeStyle;fontSize=12;html=1;endArrow=ERoneToMany;exitX=1.031;exitY=0.077;exitDx=0;exitDy=0;exitPerimeter=0;entryX=-0.006;entryY=0.405;entryDx=0;entryDy=0;entryPerimeter=0;" edge="1" parent="1" source="13" target="16">
                    <mxGeometry width="100" height="100" relative="1" as="geometry">
                        <mxPoint x="330" y="380" as="sourcePoint"/>
                        <mxPoint x="430" y="280" as="targetPoint"/>
                    </mxGeometry>
                </mxCell>
            </root>
        </mxGraphModel>
    </diagram>
</mxfile>